PathFileType	4	(X/Y/Z)	C:\Users\Basilio\Documents\Thesis Gigler\squatting_fais\c3dfiles\075\SJ_pre2\markers_experimental.trc
DataRate	CameraRate	NumFrames	NumMarkers	Units	OrigDataRate	OrigDataStartFrame	OrigNumFrames
200.000000	200.000000	4	61	mm	200.000000	0	1695
Frame#	Time	FHD			LBHD			C7			T10			CLAV			LSHO			LUUPA			LMUPA			LDUPA			LLEP			LMEP			LRAD			LUL			LRFIN			RSHO			RUPA1			RMUPA			RDUPA			RLEP			RMEP			RRAD			RUL			RUFIN			LASI			RASI			USACR			LSACR			RSACR			LTHI1			LTHI2			LTHI3			LTHI4			LLFC			LMFC			LTIB1			LTIB2			LTIB3			LTIB4			LLMAL			LMMAL			LHEE			LMT1			LMT2			LMT5			RTHI			RTHI2			RTHI3			RTHI4			RLFC			RMFC			RTIB1			RTIB2			RTIB3			RTIB4			RLMAL			RMMAL			RHEE			RMT1			RMT2			RMT5			RBHD			
		X1	Y1	Z1	X2	Y2	Z2	X3	Y3	Z3	X4	Y4	Z4	X5	Y5	Z5	X6	Y6	Z6	X7	Y7	Z7	X8	Y8	Z8	X9	Y9	Z9	X10	Y10	Z10	X11	Y11	Z11	X12	Y12	Z12	X13	Y13	Z13	X14	Y14	Z14	X15	Y15	Z15	X16	Y16	Z16	X17	Y17	Z17	X18	Y18	Z18	X19	Y19	Z19	X20	Y20	Z20	X21	Y21	Z21	X22	Y22	Z22	X23	Y23	Z23	X24	Y24	Z24	X25	Y25	Z25	X26	Y26	Z26	X27	Y27	Z27	X28	Y28	Z28	X29	Y29	Z29	X30	Y30	Z30	X31	Y31	Z31	X32	Y32	Z32	X33	Y33	Z33	X34	Y34	Z34	X35	Y35	Z35	X36	Y36	Z36	X37	Y37	Z37	X38	Y38	Z38	X39	Y39	Z39	X40	Y40	Z40	X41	Y41	Z41	X42	Y42	Z42	X43	Y43	Z43	X44	Y44	Z44	X45	Y45	Z45	X46	Y46	Z46	X47	Y47	Z47	X48	Y48	Z48	X49	Y49	Z49	X50	Y50	Z50	X51	Y51	Z51	X52	Y52	Z52	X53	Y53	Z53	X54	Y54	Z54	X55	Y55	Z55	X56	Y56	Z56	X57	Y57	Z57	X58	Y58	Z58	X59	Y59	Z59	X60	Y60	Z60	X61	Y61	Z61	

1	0	-191.8954620361328	1691.02880859375	-891.7622680664065	-330.6651000976563	1572.844482421875	-972.9281005859377	-384.1236572265626	1460.547729492188	-911.1665649414065	-410.6323242187501	1134.49609375	-909.685974121094	-242.6866149902344	1395.948608398438	-903.408630371094	-280.8280029296876	1431.32568359375	-1064.046142578125	-325.0223083496094	1286.567138671875	-1230.17626953125	-290.2685852050782	1250.355346679688	-1222.34521484375	-321.1792602539063	1229.150756835938	-1270.443969726563	-314.4208679199219	1145.0048828125	-1298.581909179688	-394.4808349609376	1133.436767578125	-1252.414916992188	-286.0496826171876	968.4643554687502	-1122.95947265625	-247.0260009765626	929.4312744140627	-1174.62646484375	-242.5961914062501	950.8054809570315	-1078.495239257813	-289.2627868652344	1430.754638671875	-744.7021484375001	-345.2839050292969	1285.177978515625	-587.2199707031251	-314.9294433593751	1245.511474609375	-590.1363525390626	-352.9651184082032	1227.048706054688	-546.7313232421876	-351.5328369140626	1158.652954101563	-519.7061767578126	-423.5719299316407	1128.51318359375	-553.3753662109376	-250.8482360839844	944.8205566406252	-634.5609130859376	-293.2609252929688	968.3388671875002	-693.6070556640626	-234.6564025878907	960.595886230469	-733.4954223632814	-235.0433349609376	945.582214355469	-1030.736938476563	-234.5540924072266	962.7210083007815	-779.5195922851565	-394.402313232422	1036.417724609375	-910.092712402344	-400.5559692382814	1003.694274902344	-936.6050415039065	-400.1988220214845	1006.825134277344	-879.502868652344	-310.5441589355469	721.2801513671876	-1107.618530273438	-288.9853515625001	640.7341308593751	-1108.141723632813	-242.1640167236329	641.3824462890626	-1091.453369140625	-320.4813537597657	590.1861572265626	-1098.252319335938	-333.8857421875001	482.7734375000001	-1087.993530273438	-286.3903503417969	464.4953002929689	-976.1868896484377	-286.0644836425782	356.9794616699219	-1072.875610351563	-351.7701721191407	323.5734558105469	-1119.537475585938	-308.5544738769532	313.9918823242188	-1103.682373046875	-313.1725158691407	232.1314697265626	-1082.388671875	-395.1704101562501	95.3239212036133	-1100.90087890625	-355.1875305175782	100.0140991210938	-1024.70947265625	-441.6851806640626	49.94366836547853	-1055.449829101563	-228.2654266357422	51.7185516357422	-1069.759155273438	-235.6591796875001	56.93617630004884	-1117.778076171875	-282.4490051269532	42.60715103149415	-1165.247680664063	-312.6557006835938	777.199645996094	-703.4227294921876	-277.4975585937501	722.0031127929689	-702.0573120117189	-246.1325073242188	726.0380859375001	-712.3836059570314	-310.3649597167969	642.4351196289064	-707.8841552734376	-330.3886413574219	488.4309082031251	-732.4536743164064	-284.8173217773438	469.6449279785157	-850.3238525390627	-282.5483703613282	336.0980834960938	-777.8923950195315	-340.5300903320313	264.7640686035157	-717.6878051757814	-300.7238769531251	256.4173889160157	-744.1862792968751	-307.9993286132813	208.1512908935547	-776.8711547851565	-384.1315002441407	91.37374114990236	-738.7427978515626	-344.4866943359376	108.2027435302735	-816.4633789062502	-425.8823852539064	48.91983032226564	-797.1859130859377	-217.9953002929688	58.4547462463379	-763.9390258789064	-227.2082214355469	57.44717407226564	-723.5816650390626	-269.1498107910157	35.37032699584962	-676.3354492187501	nan	nan	nan	
2	0.005	-191.6534576416016	1690.90087890625	-892.7781372070315	-331.6188659667969	1572.96826171875	-972.5056762695315	-384.1164550781251	1460.518310546875	-911.1655273437502	-410.7158813476564	1134.49755859375	-909.7261962890627	-242.7852630615235	1395.9462890625	-903.4463500976565	-280.8977966308594	1431.333984375	-1064.05859375	-325.1075134277344	1286.552368164063	-1230.208618164063	-290.2649536132813	1250.343627929688	-1222.3798828125	-321.1627502441407	1229.145141601563	-1270.494384765625	-314.3703613281251	1144.986694335938	-1298.592651367188	-394.4878234863282	1133.428833007813	-1252.48828125	-286.0501708984376	968.446228027344	-1122.962280273438	-247.0397338867188	929.4212646484377	-1174.638793945313	-242.4859313964844	950.8579101562502	-1078.551635742188	-289.3175354003907	1430.726806640625	-744.7343139648439	-345.3752746582032	1285.161010742188	-587.2645263671876	-315.0406188964844	1245.460693359375	-590.1810913085939	-353.1209411621094	1227.005249023438	-546.7639160156251	-351.6383361816407	1158.629150390625	-519.7640380859376	-423.7642822265626	1128.518920898438	-553.4700927734376	-250.9439239501954	944.767028808594	-634.5568847656251	-293.3328552246094	968.3017578125002	-693.6299438476564	-234.7426910400391	960.6027832031252	-733.5335083007814	-235.1270446777344	945.5664062500002	-1030.768310546875	-234.5991210937501	962.713073730469	-779.4805297851565	-394.482635498047	1036.422607421875	-910.1514892578127	-400.5700073242189	1003.672729492188	-936.6649169921877	-400.2065734863282	1006.794250488281	-879.5637817382815	-310.5126647949219	721.2922363281251	-1107.652587890625	-288.9655456542969	640.7374267578126	-1108.168579101563	-242.130111694336	641.3840332031251	-1091.473388671875	-320.4747924804688	590.1274414062501	-1098.287841796875	-333.8272094726563	482.7801208496095	-1088.046264648438	-286.3487243652344	464.5205993652345	-976.2564086914065	-286.8385314941407	357.1414794921876	-1073.50537109375	-351.7333068847657	323.5568847656251	-1119.555908203125	-308.5429077148438	313.9614562988282	-1103.705078125	-313.1406860351563	232.1250000000001	-1082.422607421875	-395.2264709472657	95.34095764160158	-1100.877197265625	-355.1638488769532	100.0117950439453	-1024.713989257813	-441.6975708007814	49.93034744262697	-1055.447387695313	-228.2571258544922	51.71817779541017	-1069.793090820313	-235.6459045410157	56.92792129516603	-1117.7763671875	-282.4947509765626	42.60702514648438	-1165.264892578125	-312.6896972656251	777.1933593750002	-703.4570922851564	-277.5547485351563	721.8597412109376	-702.1084594726564	-246.1296539306641	726.0291137695314	-712.4063110351564	-310.3409423828126	642.4386596679689	-707.8974609375001	-330.3816528320313	488.4226684570314	-732.4796752929689	-284.7804260253907	469.6527404785157	-850.3129882812502	-282.5331726074219	336.0234375000001	-777.9009399414065	-340.5289001464844	264.7361450195313	-717.6575317382814	-300.7232666015626	256.4055175781251	-744.1969604492189	-307.9428405761719	208.1124877929688	-776.856140136719	-384.1972045898439	91.47085571289064	-738.6891479492189	-344.7388916015626	108.335075378418	-816.628845214844	-425.8778686523439	48.90847396850587	-797.191589355469	-217.9465637207032	58.46621322631837	-763.9451293945314	-227.1916046142579	57.45595169067384	-723.6132812500001	-269.1723022460938	35.35995483398438	-676.3439331054689	nan	nan	nan	
3	0.01	-191.3714904785157	1690.832885742188	-893.8843383789065	-332.8688964843751	1573.105102539063	-972.0687255859377	-384.2459411621095	1460.523681640625	-911.1396484375002	-410.6787414550782	1134.449340820313	-909.817565917969	-242.831771850586	1395.914428710938	-903.4741210937502	-280.9634704589844	1431.317016601563	-1064.066528320313	-325.0671691894532	1286.533813476563	-1230.2333984375	-290.3002014160157	1250.330932617188	-1222.357299804688	-321.1981201171876	1229.1181640625	-1270.501708984375	-314.3618469238282	1144.98095703125	-1298.658203125	-394.4732971191407	1133.407958984375	-1252.48046875	-286.0281982421876	968.432312011719	-1122.954833984375	-246.9913482666016	929.4353027343752	-1174.654663085938	-242.4509582519532	950.8653564453127	-1078.534301757813	-289.3956909179688	1430.695678710938	-744.7317504882814	-345.5170288085938	1285.093872070313	-587.2811889648439	-315.2017517089844	1245.440307617188	-590.2019653320314	-353.2877807617188	1226.992309570313	-546.8299560546876	-351.7692565917969	1158.573364257813	-519.7767333984376	-423.851776123047	1128.438720703125	-553.4696044921876	-251.0474395751954	944.7309570312502	-634.5790405273439	-293.3871459960938	968.2593383789065	-693.7058105468751	-234.771957397461	960.5591430664065	-733.5252075195314	-235.1328582763672	945.5660400390627	-1030.767700195313	-234.6483764648438	962.6961059570315	-779.5800781250002	-394.4878234863282	1036.419555664063	-910.2266235351565	-400.5968322753907	1003.649169921875	-936.7092285156252	-400.2174072265626	1006.796569824219	-879.5625000000002	-310.5018920898438	721.1833496093751	-1107.686889648438	-287.9474182128907	640.3566284179689	-1107.728637695313	-242.1498260498047	641.4194335937501	-1091.447265625	-320.4211425781251	590.1511840820314	-1098.355712890625	-333.7832031250001	482.7419738769532	-1088.076416015625	-286.3484802246094	464.5012512207032	-976.259460449219	-286.0033874511719	356.9767761230469	-1072.873413085938	-351.7540893554688	323.5306091308594	-1119.589111328125	-308.5051574707032	313.8844909667969	-1103.748291015625	-313.1529846191407	232.1184692382813	-1082.436401367188	-395.2259216308595	95.34182739257814	-1100.907470703125	-355.1780700683594	99.99681091308597	-1024.693969726563	-441.6879882812501	49.9401206970215	-1055.466552734375	-228.2218475341797	51.72139739990236	-1069.752075195313	-235.6611480712891	56.94750213623048	-1117.774291992188	-282.1273193359376	42.52583694458009	-1165.20751953125	-312.7278747558594	777.1831054687502	-703.4987792968751	-277.5884399414063	721.8831787109376	-702.0825805664064	-246.1603698730469	726.0333862304689	-712.4089355468751	-310.3812866210938	642.4379272460939	-707.9188232421876	-330.3639526367188	488.4114074707032	-732.4544067382814	-284.8095397949219	469.613250732422	-850.3255615234377	-282.4826049804688	336.0149841308594	-777.9536743164065	-340.5139465332032	264.7502746582032	-717.6837158203126	-300.7043762207032	256.3736877441407	-744.1809692382814	-308.0398254394532	208.1252441406251	-776.8437500000002	-384.1094360351564	91.36373901367189	-738.7333984375001	-344.3892211914063	108.2368774414063	-816.4881591796877	-425.8841552734376	48.92300415039064	-797.1597900390627	-217.9934692382813	58.45470809936525	-763.9382934570314	-227.2121734619141	57.42242813110353	-723.5441284179689	-269.2070922851563	35.37189483642579	-676.3428955078126	nan	nan	nan	
4	0.015	-191.1819000244141	1690.790649414063	-895.1431274414065	-333.7052917480469	1572.854858398438	-971.3686523437502	-384.2942504882814	1460.505615234375	-911.1407470703127	-410.7536010742189	1134.461791992188	-909.838562011719	-242.8993377685547	1395.925170898438	-903.5207519531252	-281.0027770996094	1431.309692382813	-1064.097534179688	-325.0904846191407	1286.516967773438	-1230.251586914063	-290.2702941894532	1250.334228515625	-1222.3818359375	-321.1977844238282	1229.111206054688	-1270.537231445313	-314.3446960449219	1144.948974609375	-1298.662841796875	-394.4591674804689	1133.391479492188	-1252.532470703125	-286.0671691894532	968.4265136718752	-1122.99951171875	-246.9328002929688	929.4224243164065	-1174.641357421875	-241.1700134277344	951.0357666015627	-1078.1640625	-289.4748840332032	1430.628540039063	-744.7733764648439	-345.6608276367188	1285.081176757813	-587.3365478515626	-315.2869873046876	1245.401000976563	-590.2424926757814	-353.4572753906251	1226.922485351563	-546.8853759765626	-351.8993530273438	1158.554931640625	-519.8360595703126	-423.990692138672	1128.393432617188	-553.5045166015626	-251.139389038086	944.7175292968752	-634.6448974609376	-293.4616394042969	968.2442626953127	-693.7308349609376	-234.876205444336	960.5609130859377	-733.5262451171876	-235.3765563964844	945.511169433594	-1030.7744140625	-234.6835632324219	962.6882324218752	-779.5462036132815	-394.5388488769532	1036.400146484375	-910.2678222656252	-400.6383056640626	1003.682067871094	-936.7631835937502	-400.274383544922	1006.781433105469	-879.6353149414065	-310.4307250976563	721.3316040039064	-1107.6474609375	-287.9240722656251	640.3344726562501	-1107.760986328125	-242.1430664062501	641.3775024414064	-1091.508178710938	-320.4346313476563	590.1478271484376	-1098.392700195313	-333.7281799316407	482.7218017578126	-1088.089477539063	-286.3130493164063	464.5025329589845	-976.271179199219	-285.9635620117188	356.9696044921876	-1072.918579101563	-351.7040100097657	323.5626525878907	-1119.606201171875	-308.4861755371094	313.9293212890626	-1103.693115234375	-313.1297302246094	232.0884399414063	-1082.4580078125	-395.2164001464845	95.31601715087892	-1100.8916015625	-355.1963500976563	100.0271835327149	-1024.6962890625	-441.6714477539064	49.92403411865236	-1055.459106445313	-228.2612762451172	51.70749664306642	-1069.770629882813	-235.6270599365235	56.95528411865236	-1117.751953125	-282.4753112792969	42.58992385864259	-1165.268676757813	-312.7789001464844	777.201843261719	-703.5105590820314	-277.6084594726563	721.9083251953126	-702.1099853515626	-246.2081909179688	726.0492553710939	-712.4329833984376	-310.3996887207032	642.4465942382814	-707.9642333984376	-330.3342285156251	488.4218139648439	-732.4683227539064	-284.7181091308594	469.6343994140626	-850.2840576171877	-282.4521484375001	336.0466003417969	-777.9168701171877	-340.4774169921876	264.7457275390626	-717.6985473632814	-300.6774597167969	256.3677673339844	-744.1911621093751	-307.9870605468751	208.1189270019532	-776.8352661132815	-384.1878662109376	91.44167327880861	-738.6870727539064	-344.7388916015626	108.335075378418	-816.628845214844	-425.894012451172	48.90999603271486	-797.205993652344	-217.9919433593751	58.46239089965822	-763.9331054687501	-227.2068634033204	57.47858047485353	-723.5426025390626	-269.1466979980469	35.3748893737793	-676.3142089843751	nan	nan	nan	
